<?xml version="1.0" encoding="utf-8"?>
<!-- Generator: Adobe Illustrator 19.1.0, SVG Export Plug-In . SVG Version: 6.00 Build 0)  -->
<svg version="1.1" xmlns="http://www.w3.org/2000/svg" xmlns:xlink="http://www.w3.org/1999/xlink" x="0px" y="0px"
	 viewBox="0 0 651.7 462.8" style="enable-background:new 0 0 651.7 462.8;" xml:space="preserve">
<style type="text/css">
	.st0{fill:none;}
	.st1{fill:#CCCCCC;}
	.st2{fill:#754321;}
	.st3{fill:#965B32;stroke:#C69C6D;stroke-width:5;stroke-miterlimit:10;}
	.st4{fill:none;stroke:#5B2A10;stroke-width:12;stroke-miterlimit:10;}
	.st5{fill:#5B2A10;}
	.st6{fill:#828282;}
	.st7{fill:#FFFFFF;}
	.st8{fill:#B7B7B7;}
	.st9{opacity:0.3;}
	.st10{fill:#E2BD86;}
	.st11{fill:none;stroke:#E2BD86;stroke-miterlimit:10;}
	.st12{fill:#A66748;}
	.st13{fill:#808080;}
	.st14{fill:#AFAFAF;}
</style>
<g id="Ebene_2">
</g>
<g id="Ebene_3">
</g>
<g id="Ebene_1">
	<path class="st0" d="M-47.2,520.8c-0.2,0-0.4,0-0.7,0"/>
	<path class="st1" d="M-49,571L-49,571z"/>
</g>
<g id="Ebene_4">
	<g>
		<g>
			<path class="st2" d="M6.5,4.5v449.1h465c2.6-0.9,5.3-1.4,8-1.4c2.9,0,5.7,0.5,8.3,1.4h158.7V4.5H6.5z"/>
			<rect x="79.7" y="61.5" class="st3" width="492.2" height="321"/>
		</g>
		<path class="st4" d="M5.6,166.4c8.9,0.1,17.9-3.9,24.9-8.9c13-11,17-28,16-45c-2-24-13-47-5-71c4-12,19-12,29-8c17,8,34,15,53,11
			c19-5,32-22,35.8-41.4"/>
		<path class="st4" d="M7.6,288.6c4.9,1.9,10.9,1.9,15.9,4.9c1,1,3,2,5,3c18,12,21,34,18,54c-4,23-14,47-2,68c10,7,22,6,33,2
			c21-10,45-17,67-7c15,7,26,22,29.1,37.9"/>
		<g>
			<g>
				<path class="st5" d="M38.2,400.9c7.1,11.3,18.7,18.5,31.9,20.2c1.9,0.2,1.9-2.8,0-3c-12.1-1.5-22.8-8.4-29.3-18.7
					C39.8,397.8,37.2,399.3,38.2,400.9L38.2,400.9z"/>
			</g>
		</g>
		<g>
			<g>
				<path class="st5" d="M43.5,412.2c3.4,3.1,7,5.8,10.9,8.2c1.4,0.8,3.2-1.3,1.8-2.4c-3.2-2.6-6.5-5.2-9.7-7.8
					c-0.6,0.8-1.2,1.6-1.8,2.4c2.8,2,5.6,3.9,8.4,5.9c0.5-0.9,1-1.7,1.5-2.6c-8.3-4.7-12-13.6-15.4-22.1c-0.6-1.6-2.7-1.3-2.9,0.4
					c-1.1,8.2,7.5,16,13.6,20.2c7.5,5.2,16.5,7.8,25.6,7.6c1.9,0,1.9-3,0-3c-9.6-0.1-18.6-2.5-27.1-7.1c-0.4,0.9-0.8,1.8-1.2,2.7
					c13.7,2.3,27.6,3.4,41.5,3.1c1.9,0,1.9-3,0-3c-13.7,0.3-27.2-0.7-40.7-3c-1.6-0.3-2.8,1.9-1.2,2.7c8.9,4.8,18.5,7.3,28.6,7.5
					c0-1,0-2,0-3c-7.6,0.2-15-1.6-21.6-5.6c-6-3.6-15.7-11.5-14.6-19.3c-1,0.1-2,0.3-2.9,0.4c3.6,9.2,7.7,18.8,16.7,23.9
					c1.7,1,3.1-1.5,1.5-2.6c-2.8-2-5.6-3.9-8.4-5.9c-1.4-1-3.1,1.3-1.8,2.4c3.2,2.6,6.5,5.2,9.7,7.8c0.6-0.8,1.2-1.6,1.8-2.4
					c-3.8-2.2-7.1-4.7-10.3-7.7C44.2,408.8,42.1,410.9,43.5,412.2L43.5,412.2z"/>
			</g>
		</g>
		<g>
			<g>
				<path class="st5" d="M35.6,389.8c-1.9,10.7,4.9,20.2,14.5,24.5c12.2,5.4,27.2,3.7,39.7,0.4c1.9-0.5,1.1-3.4-0.8-2.9
					c-10.3,2.7-21.8,4.1-32.3,1.6c-10.3-2.5-20.2-11.1-18.2-22.7C38.9,388.7,36,387.9,35.6,389.8L35.6,389.8z"/>
			</g>
		</g>
		<path class="st4" d="M646.8,168.3c-14.3-2.8-26.3-9.8-33.3-21.8c-5-10-7-21-6-32c2-25,17-50,4-74c-5-9-17-10-26-7
			c-23,8-47,20-71,11c-17-7-29-22-33-40"/>
		<g>
			<g>
				<path class="st5" d="M481.5,8.5c-0.4,1.6,0.1,2.8,1.5,3.7c0.6,0.4,1.7,0.2,2.1-0.5c1-2.2,1.9-4.5,2.7-6.8c-1-0.1-2-0.3-2.9-0.4
					c0.2,2.2,0.4,4.5,0.6,6.7c0.2,1.9,2.8,1.9,3,0c0.2-1.6,0.3-3.2,0.5-4.8c0.2-1.7-2.6-2.1-2.9-0.4c-0.2,1.2-0.5,2.4-0.7,3.6
					c-0.4,1.9,2.4,2.7,2.9,0.8c0.5-2.2,1.3-4.3,2.3-6.4c0.9-1.7-1.7-3.2-2.6-1.5c-1.2,2.3-2,4.6-2.6,7.1c1,0.3,1.9,0.5,2.9,0.8
					c0.2-1.2,0.5-2.4,0.7-3.6c-1-0.1-2-0.3-2.9-0.4c-0.2,1.6-0.3,3.2-0.5,4.8c1,0,2,0,3,0c-0.2-2.2-0.4-4.5-0.6-6.7
					c-0.2-1.7-2.4-2.1-2.9-0.4c-0.7,2.1-1.5,4.1-2.4,6.1c0.7-0.2,1.4-0.4,2.1-0.5c0-0.1-0.1-0.2-0.1-0.3
					C484.8,7.4,481.9,6.6,481.5,8.5L481.5,8.5z"/>
			</g>
		</g>
		<g>
			<g>
				<path class="st5" d="M557.6,51.5c0.3-2.1,13.2-2.3,15.3-2.4c4.6-0.2,9.3-0.1,13.9,0.5c8.3,1.1,22.6,4.3,23.7,14.6
					c0.2,1.9,3.2,1.9,3,0c-1.3-12.1-16.2-16.2-26.3-17.6c-7.4-1-14.9-0.7-22.3,0.2c-3.5,0.4-9.8,0.1-10.3,4.7
					C554.4,53.4,557.4,53.4,557.6,51.5L557.6,51.5z"/>
			</g>
		</g>
		<g>
			<g>
				<path class="st5" d="M532.3,47.3c-0.1,0.1-0.2,0.2-0.3,0.4c-0.5,0.5-0.6,1.2-0.2,1.8c2.2,4.2,12.4,3.7,16.3,3.7
					c7.9,0,15.6-1.5,23.4-2.4c12.6-1.5,34-2.2,40.1,12c0.8,1.8,3.3,0.2,2.6-1.5C609.3,50,593.9,47.1,583,47
					c-7.5,0-14.9,1.3-22.3,2.2c-4.2,0.5-8.4,1-12.6,1c-1.8,0-3.6,0-5.3-0.2c-1.3-0.1-7.6-0.4-8.4-2c-0.1,0.6-0.2,1.2-0.2,1.8
					c0.1-0.1,0.2-0.2,0.3-0.4C535.7,48,533.6,45.9,532.3,47.3L532.3,47.3z"/>
			</g>
		</g>
		<g>
			<g>
				<path class="st5" d="M567.7,42.8c-1.2,1.7-1.6,3-1.6,5.1c0,1,1,1.6,1.9,1.4c4.4-0.9,8.8-1.7,13.2-2.4c1.6-0.3,1.3-2.5,0-2.9
					c-3.5-1.2-6.9-1.6-10.6-1.4c-1.9,0.1-1.9,3.1,0,3c5.6-0.2,11.1,0.1,16.7,0.7c0-1,0-2,0-3c-5.8,0-11.7,0-17.5,0c0,1,0,2,0,3
					c6.6-0.2,13.1-0.5,19.7-0.7c1.9-0.1,1.9-3,0-3c-4.8,0-9.5-0.1-14.3-0.1c-1.6,0-2.1,2.7-0.4,2.9c5.7,1,11.4,1.9,17.1,2.9
					c5.6,0.9,11.2,1.6,16.2,4.5c0.4-0.9,0.8-1.8,1.2-2.7c-8.9-1.4-17.4-4-25.5-7.9c-0.4,0.9-0.8,1.8-1.2,2.7c9.8,1.4,19,4.7,27.4,10
					c0.4-0.9,0.8-1.8,1.2-2.7c-2.6-0.6-5.2-1.1-7.8-1.7c-1.1-0.3-2.5,1.1-1.7,2.2c1.9,2.5,4.1,3.7,7.3,3.6c0.9,0,1.8-0.9,1.4-1.9
					c-3.9-11.4-20.1-14.9-30.4-17.2c-0.3,1-0.5,1.9-0.8,2.9c10,2,19.7,5.1,28.9,9.6c0.4-0.9,0.8-1.8,1.2-2.7c-8-1.6-15.9-3.6-23.7-6
					c-0.3,1-0.5,1.9-0.8,2.9c7.1,1.6,14.2,2.5,21.4,2.6c1.7,0,2.1-2.6,0.4-2.9c-4.1-0.9-8.2-1.8-12.4-2.7c-1.9-0.4-2.6,2.3-0.8,2.9
					c4.1,1.4,8,1.7,12.2,1.1c1.3-0.2,1.4-2.2,0.4-2.7c-3.5-1.8-6.9-2.7-10.8-3.1c-1.7-0.1-2,2.6-0.4,2.9c3.8,0.9,7.5,1.2,11.5,0.9
					c1.5-0.1,2-1.9,0.8-2.8c-4.5-3.3-9.9-3.8-15.3-3c-4.6,0.7-12.9,1.6-15.7,5.9c-0.5,0.8,0,2,0.9,2.2c5.1,1.3,9.9,1.1,14.9-0.5
					c1.9-0.6,1.1-3.2-0.8-2.9c-3.8,0.6-7.1,0.2-10.7-1.3c0,0.9,0,1.7,0,2.6c4.4-2.4,8.7-3.3,13.8-2.9c1.5,0.1,2-2.1,0.8-2.8
					c-1.7-1-3.2-1.6-5.2-2.1c-0.3,1-0.5,1.9-0.8,2.9c3.4,0.8,6.6,1.9,9.8,3.4c1.7,0.8,3.2-1.6,1.5-2.6c-1.1-0.7-2.3-1.3-3.4-2
					c-0.5,0.9-1,1.7-1.5,2.6c5.9,3,10.3,7.4,13.2,13.4c0.6,1.2,2.5,0.9,2.7-0.4c2-8.6-4.9-15.6-13.6-13.6c-1.4,0.3-1.5,2.7,0,2.9
					c1.1,0.1,12.7,1.2,12.5,2.5c-0.3,1.9,2.6,2.7,2.9,0.8c1.1-6.3-10.8-5.7-14.6-6.2c0,1,0,1.9,0,2.9c6.2-1.5,11.3,3.6,9.9,9.9
					c0.9-0.1,1.8-0.2,2.7-0.4c-3.1-6.4-7.9-11.3-14.3-14.5c-1.7-0.9-3.2,1.6-1.5,2.6c1.1,0.7,2.3,1.3,3.4,2c0.5-0.9,1-1.7,1.5-2.6
					c-3.4-1.6-6.8-2.8-10.5-3.7c-1.9-0.4-2.7,2.4-0.8,2.9c1.6,0.3,3.1,0.9,4.4,1.8c0.3-0.9,0.5-1.9,0.8-2.8
					c-5.5-0.4-10.5,0.7-15.3,3.3c-0.9,0.5-1.1,2.1,0,2.6c4.3,1.8,8.4,2.3,13,1.6c-0.3-1-0.5-1.9-0.8-2.9c-4.5,1.5-8.7,1.6-13.3,0.5
					c0.3,0.7,0.6,1.5,0.9,2.2c2-3,10.3-4,13.7-4.5c4.7-0.7,9.2-0.3,13.1,2.6c0.3-0.9,0.5-1.9,0.8-2.8c-3.6,0.2-7.1,0-10.7-0.8
					c-0.1,1-0.3,2-0.4,2.9c3.4,0.3,6.2,1.1,9.3,2.6c0.1-0.9,0.2-1.8,0.4-2.7c-3.7,0.5-7.1,0.1-10.6-1.1c-0.3,1-0.5,1.9-0.8,2.9
					c4.1,0.9,8.2,1.8,12.4,2.7c0.1-1,0.3-2,0.4-2.9c-7-0.1-13.8-0.9-20.6-2.5c-1.9-0.4-2.7,2.3-0.8,2.9c7.8,2.4,15.7,4.4,23.7,6
					c1.6,0.3,2.8-2,1.2-2.7c-9.4-4.5-19.3-7.8-29.6-9.9c-1.9-0.4-2.7,2.5-0.8,2.9c9,2,24.9,5.1,28.3,15.1c0.5-0.6,1-1.3,1.4-1.9
					c-1.6-0.7-3.1-1.4-4.7-2.1c-0.6,0.7-1.1,1.5-1.7,2.2c2.6,0.6,5.2,1.1,7.8,1.7c1.7,0.4,2.6-1.8,1.2-2.7
					c-8.6-5.4-18-8.9-28.1-10.3c-1.5-0.2-2.8,1.9-1.2,2.7c8.4,4,17.1,6.7,26.2,8.2c1.6,0.3,2.7-1.8,1.2-2.7c-4.6-2.7-9.7-3.6-15-4.5
					c-6.3-1.1-12.7-2.2-19-3.2c-0.1,1-0.3,2-0.4,2.9c4.8,0,9.5,0.1,14.3,0.1c0-1,0-2,0-3c-6.6,0.2-13.1,0.5-19.7,0.7
					c-1.9,0.1-1.9,3,0,3c5.8,0,11.7,0,17.5,0c2,0,1.9-2.8,0-3c-5.5-0.6-11.1-0.8-16.7-0.7c0,1,0,2,0,3c3.4-0.2,6.6,0.2,9.8,1.3
					c0-1,0-1.9,0-2.9c-4.4,0.7-8.8,1.5-13.2,2.4c0.6,0.5,1.3,1,1.9,1.4c0.4-1.2,0.8-2.4,1.2-3.6C571.4,42.8,568.8,41.3,567.7,42.8
					L567.7,42.8z"/>
			</g>
		</g>
		<g>
			<g>
				<path class="st5" d="M648.3,159.3c-5.5-2.8-10.9-5.7-16.4-8.5c-1.6-0.8-2.9,1.1-1.8,2.4c4.3,5.1,10.8,6.5,17.1,7.7
					c1.9,0.4,2.7-2.5,0.8-2.9c-5.8-1.1-11.8-2.2-15.7-6.9c-0.6,0.8-1.2,1.6-1.8,2.4c5.5,2.8,10.9,5.7,16.4,8.5
					C648.5,162.7,650,160.1,648.3,159.3L648.3,159.3z"/>
			</g>
		</g>
		<g>
			<g>
				<path class="st5" d="M647.7,158c-4.4-0.9-8.8-1.8-13.2-2.8c-1.9-0.4-2.6,2.2-0.8,2.9c4.2,1.7,8.4,2.5,13,2.5
					c1.6,0,2.1-2.7,0.4-2.9c-2.8-0.4-5.6-0.9-8.4-1.3c-1.9-0.3-2.7,2.3-0.8,2.9c2.7,0.9,5.3,1.4,8.1,1.8c-0.1-1-0.3-2-0.4-2.9
					c-2.3,0.4-4.7,0.7-7,1.1c-1.3,0.2-1.5,2.2-0.4,2.7c2.7,1.3,5.4,2.3,8.4,2.9c1.7,0.3,2.6-1.8,1.2-2.7c-6.2-4.1-17.7-3.6-20-12
					c-0.8,0.5-1.7,1-2.5,1.5c6.4,5.4,13.8,9.1,22,10.9c1.9,0.4,2.7-2.5,0.8-2.9c-7.7-1.7-14.6-5.1-20.7-10.2
					c-1.1-0.9-2.9-0.1-2.5,1.5c2.7,9.9,14.2,9.1,21.4,13.8c0.4-0.9,0.8-1.8,1.2-2.7c-2.7-0.6-5.2-1.4-7.7-2.6
					c-0.1,0.9-0.2,1.8-0.4,2.7c2.3-0.4,4.7-0.7,7-1.1c1.8-0.3,1.1-2.8-0.4-2.9c-2.5-0.3-4.9-0.9-7.3-1.7c-0.3,1-0.5,1.9-0.8,2.9
					c2.8,0.4,5.6,0.9,8.4,1.3c0.1-1,0.3-2,0.4-2.9c-4.3,0-8.2-0.8-12.2-2.4c-0.3,1-0.5,1.9-0.8,2.9c4.4,0.9,8.8,1.8,13.2,2.8
					C648.8,161.2,649.6,158.3,647.7,158L647.7,158z"/>
			</g>
		</g>
		<g>
			<g>
				<path class="st5" d="M617.9,149.6c5.9,6.6,13.2,11.4,21.5,14.3c1.7,0.6,2.4-1.8,1.2-2.7c-7.4-5.5-14.7-10.9-22.1-16.4
					c-1.4-1-3.1,1.2-1.8,2.4c8.4,7.2,18.3,11.5,29.3,12.7c1.6,0.2,1.9-2.1,0.8-2.8c-7.9-5.3-16.2-9.7-24.9-13.5
					c-1.8-0.8-3.1,1.5-1.5,2.6c7.9,5.6,17.1,8.4,26.4,11c0.3-1,0.5-1.9,0.8-2.9c-8-2.1-15.8-4.4-23.6-6.9c-1.2-0.4-2.5,1.1-1.7,2.2
					c6,8.1,16.1,7.7,24.8,11c1.8,0.7,2.6-2.2,0.8-2.9c-7.6-3-17.7-2.5-23-9.7c-0.6,0.7-1.1,1.5-1.7,2.2c7.8,2.6,15.7,4.9,23.6,6.9
					c1.9,0.5,2.7-2.4,0.8-2.9c-9-2.6-18-5.3-25.7-10.7c-0.5,0.9-1,1.7-1.5,2.6c8.7,3.7,17,8.2,24.9,13.5c0.3-0.9,0.5-1.9,0.8-2.8
					c-10.2-1.1-19.5-5.2-27.2-11.8c-0.6,0.8-1.2,1.6-1.8,2.4c7.4,5.5,14.7,10.9,22.1,16.4c0.4-0.9,0.8-1.8,1.2-2.7
					c-7.9-2.7-14.6-7.3-20.2-13.5C618.8,146.1,616.7,148.2,617.9,149.6L617.9,149.6z"/>
			</g>
		</g>
		<g>
			<g>
				<path class="st5" d="M590.4,42.4c2.4,0.9,5,1.4,7.6,1.4c1.9,0,1.9-2.9,0-3c-3.1-0.1-6-1.2-8.5-3.1c-0.6,0.8-1.2,1.6-1.8,2.4
					c2.5,1.2,5,2.2,7.6,3c0.1-1,0.3-2,0.4-2.9c-0.5,0.1-0.9,0.1-1.4-0.1c0.2,0.7,0.4,1.4,0.5,2.1c0.2-0.5,0.6-0.8,1.1-1
					c1.8-0.7,1-3.6-0.8-2.9c-1.3,0.5-2.2,1.2-2.9,2.4c-0.4,0.6-0.2,1.7,0.5,2.1c1,0.4,1.8,0.7,2.9,0.5c1.6-0.2,2.1-2.4,0.4-2.9
					c-2.4-0.7-4.7-1.6-6.9-2.7c-1.4-0.7-3.2,1.2-1.8,2.4c3.1,2.5,6.6,3.9,10.6,4c0-1,0-2,0-3c-2.4,0-4.6-0.4-6.8-1.2
					C589.4,38.8,588.6,41.7,590.4,42.4L590.4,42.4z"/>
			</g>
		</g>
		<path class="st4" d="M646.3,298.6c-4.8,0.9-9.8-3.1-14.8-0.1c-14,8-28,23-24,40c2,16,5,30,7,46c2,12,3,24-3,35c-7,10-20,9-30,5
			c-17-7-35-16-54-14c-21,3-39,19-44.2,40.2"/>
		<g>
			<g>
				<path class="st5" d="M569,416.5c9.5,3.7,20,1.3,29.2-2.4c7-2.8,13.6-7.2,15.7-14.8c0.5-1.9-2.4-2.7-2.9-0.8
					c-2.1,7.5-9.3,11.3-16.2,13.7c-8.1,2.9-16.8,4.6-25,1.4C568,412.9,567.2,415.8,569,416.5L569,416.5z"/>
			</g>
		</g>
		<g>
			<g>
				<path class="st5" d="M587.5,421.6c4.9,0.6,9.5,0,14.1-2c1.4-0.6,1.4-3-0.4-2.9c-4.9,0-9.9,0.1-14.8,0.1c0,1,0,2,0,3
					c5.5-0.4,11-0.7,16.5-1.1c1.9-0.1,1.9-2.8,0-3c-6.5-0.6-12.8-0.1-19.1,1.5c-1.7,0.4-1.2,2.8,0.4,2.9c6.8,0.6,13.5,0,20.1-1.9
					c1.6-0.4,1.3-3.1-0.4-2.9c-7.2,0.8-14.3,2.1-21.2,4.1c-1.6,0.4-1.3,3.2,0.4,2.9c10.1-1.3,20-3.3,29.7-6.3
					c1.6-0.5,1.3-2.9-0.4-2.9c-6.6-0.4-12.8,1-18.6,4c-1.5,0.8-0.5,3.3,1.2,2.7c5.7-2.1,10.9-4.9,15.8-8.5c1.5-1.1,0.2-3.6-1.5-2.6
					c-3.6,2.2-7.3,4.4-10.9,6.5c0.5,0.9,1,1.7,1.5,2.6c3.7-2.3,7.4-4.6,11.1-6.9c1.4-0.9,0.5-3.4-1.2-2.7c-4.5,1.8-8.7,4.1-12.6,7
					c-1.5,1.1-0.1,3.7,1.5,2.6c3.3-2.4,6.7-4.7,10-7.1c1.4-1,0.5-3-1.2-2.7c-3.3,0.5-5.9,2-8.1,4.5c-0.9,1-0.1,3.1,1.5,2.5
					c4.1-1.6,7.8-3.7,11.2-6.5c1.5-1.2-0.6-3.3-2.1-2.1c-6.1,4.8-13.2,7.6-20.9,8.3c0.1,1,0.3,2,0.4,2.9c8.1-1.1,18.3-0.8,24.7-6.4
					c1.5-1.3-0.7-3.4-2.1-2.1c-5.8,5-16.3,4.6-23.4,5.6c-1.7,0.2-1.3,3.1,0.4,2.9c8.6-0.8,16.2-3.8,23-9.2c-0.7-0.7-1.4-1.4-2.1-2.1
					c-3.1,2.4-6.3,4.3-9.9,5.7c0.5,0.8,1,1.7,1.5,2.5c1.9-2.2,3.9-3.3,6.8-3.8c-0.4-0.9-0.8-1.8-1.2-2.7c-3.3,2.4-6.7,4.7-10,7.1
					c0.5,0.9,1,1.7,1.5,2.6c3.7-2.7,7.6-4.9,11.9-6.7c-0.4-0.9-0.8-1.8-1.2-2.7c-3.7,2.3-7.4,4.6-11.1,6.9c-1.6,1-0.1,3.6,1.5,2.6
					c3.6-2.2,7.3-4.4,10.9-6.5c-0.5-0.9-1-1.7-1.5-2.6c-4.7,3.4-9.7,6.2-15.1,8.2c0.4,0.9,0.8,1.8,1.2,2.7
					c5.4-2.8,11.1-3.9,17.1-3.6c-0.1-1-0.3-2-0.4-2.9c-9.5,2.9-19.1,5-28.9,6.2c0.1,1,0.3,2,0.4,2.9c6.7-1.9,13.5-3.3,20.4-4
					c-0.1-1-0.3-2-0.4-2.9c-6.4,1.8-12.7,2.3-19.3,1.8c0.1,1,0.3,2,0.4,2.9c6.1-1.5,12.1-1.9,18.3-1.3c0-1,0-2,0-3
					c-5.5,0.4-11,0.7-16.5,1.1c-1.9,0.1-1.9,3,0,3c4.9,0,9.9-0.1,14.8-0.1c-0.1-1-0.3-2-0.4-2.9c-4.4,1.8-8.6,2.4-13.3,1.9
					C585.6,418.3,585.6,421.3,587.5,421.6L587.5,421.6z"/>
			</g>
		</g>
		<g>
			<g>
				<path class="st5" d="M601.5,415.7c29-24.8-14.4-66.4,10.2-92.5c1.3-1.4-0.8-3.5-2.1-2.1c-10.8,11.4-9.3,27.8-5.8,41.9
					c3.9,16.3,10.7,37.7-4.3,50.6C597.9,414.8,600.1,416.9,601.5,415.7L601.5,415.7z"/>
			</g>
		</g>
		<g>
			<g>
				<path class="st5" d="M609.8,319.9c-6.4,2-7.2,11.9-7.3,17.5c-0.2,9.8,3,19.4,6.4,28.4c0.7,1.8,3.6,1,2.9-0.8
					c-2.3-6.2-4.5-12.6-5.6-19.2c-0.6-3.3-0.8-6.8-0.6-10.2c0.2-3.4,1-11.6,5-12.9C612.4,322.2,611.6,319.3,609.8,319.9L609.8,319.9
					z"/>
			</g>
		</g>
		<g>
			<g>
				<path class="st5" d="M646.1,299.4c-8.7,2.9-17.2,6.5-24.6,12.1c-4.3,3.2-9.1,7.8-6.7,13.5c0.5,1.2,2.4,0.8,2.7-0.4
					c3.5-13.4,17.4-18.4,29.4-21.9c1.9-0.5,1.1-3.4-0.8-2.9c-13.1,3.7-27.7,9.4-31.5,24c0.9-0.1,1.8-0.2,2.7-0.4
					c-2.2-5.1,6.6-10.2,10-12.4c6.1-3.9,12.7-6.5,19.6-8.8C648.7,301.7,647.9,298.8,646.1,299.4L646.1,299.4z"/>
			</g>
		</g>
		<g>
			<g>
				<path class="st5" d="M645.9,299c-11.7,0.9-23.7,4.1-31.3,13.6c0.8,0.6,1.6,1.2,2.4,1.8c6.5-9.6,18.8-11.2,29.3-13.2
					c1.9-0.4,1.1-3.3-0.8-2.9c-11.5,2.2-24.1,4.1-31.1,14.5c-0.9,1.4,1.3,3.2,2.4,1.8c7.2-8.9,18.2-11.9,29.2-12.7
					C647.9,301.9,647.9,298.9,645.9,299L645.9,299z"/>
			</g>
		</g>
		<g>
			<g>
				<path class="st5" d="M646.3,300.8c-11.6,2-22.9,5.9-30.2,15.5c-1.1,1.4,1.2,2.9,2.4,1.8c7.9-7.4,17.4-12.4,27.9-15
					c1.9-0.5,1.1-3.4-0.8-2.9c-11,2.7-20.9,8-29.2,15.7c0.8,0.6,1.6,1.2,2.4,1.8c6.8-9,17.7-12.3,28.4-14.2
					C649,303.3,648.2,300.4,646.3,300.8L646.3,300.8z"/>
			</g>
		</g>
		<g>
			<g>
				<path class="st5" d="M645.9,298.1c-14.3,3-26.5,11.1-37.5,20.5c-0.9,0.8-0.3,2.2,0.7,2.5c5.6,2,9.4-5.3,13.2-8.2
					c7.2-5.4,15.7-8.2,24.4-9.7c1.9-0.3,1.1-3.2-0.8-2.9c-6.7,1.1-13.3,3.1-19.3,6.3c-2.7,1.4-5.2,3.1-7.5,5c-2.1,1.7-6,7.7-9.1,6.6
					c0.2,0.8,0.4,1.7,0.7,2.5c10.5-9.1,22.3-16.8,36.1-19.7C648.6,300.6,647.8,297.7,645.9,298.1L645.9,298.1z"/>
			</g>
		</g>
		<g>
			<g>
				<path class="st5" d="M646.5,301.5c-10.6,3.1-21.8,4.9-31,11.4c-1.6,1.1-0.2,3.3,1.5,2.6c10-4.2,19.4-9.6,29.6-13.4
					c1.8-0.7,1-3.6-0.8-2.9c-10.4,3.9-20.1,9.4-30.3,13.7c0.5,0.9,1,1.7,1.5,2.6c8.9-6.4,19.9-8.1,30.2-11.1
					C649.1,303.8,648.4,300.9,646.5,301.5L646.5,301.5z"/>
			</g>
		</g>
		<g>
			<g>
				<path class="st5" d="M608.9,321.4c-0.7,0.9-0.7,0.9-0.9,2.1c-0.2,1.3,1.4,2.7,2.5,1.5c7.9-8.9,18-15,29.5-17.9
					c-0.3-1-0.5-1.9-0.8-2.9c-8.9,3-18,6.3-24.1,13.9c-1.2,1.5,0.7,3.5,2.1,2.1c8.4-8.3,18.7-14,30.2-16.8c1.9-0.5,1.1-3.4-0.8-2.9
					c-12,3-22.7,8.9-31.5,17.6c0.7,0.7,1.4,1.4,2.1,2.1c5.8-7.2,14.3-10.2,22.8-13.1c1.8-0.6,1.1-3.4-0.8-2.9
					c-12,3.1-22.6,9.5-30.8,18.7c0.8,0.5,1.7,1,2.5,1.5c0.2-0.4,0.4-0.9,0.6-1.3C612.6,321.4,610,319.9,608.9,321.4L608.9,321.4z"/>
			</g>
		</g>
		<g>
			<g>
				<path class="st5" d="M565.9,414.4c-0.1-0.1-0.2-0.2-0.4-0.3c-0.5,0.8-1,1.7-1.5,2.5c4.5,1.4,9,2.8,13.4,4.3
					c1.6,0.5,2.7-1.9,1.2-2.7c-4.5-2.3-9-4.1-14-5.2c-0.1,1-0.3,2-0.4,2.9c5-0.2,9.8,0.4,14.6,1.8c1.9,0.6,2.6-2.2,0.8-2.9
					c-4.7-1.8-9.3-3.6-14-5.4c-0.3,1-0.5,1.9-0.8,2.9c5,1.3,9.7,3.1,14.3,5.4c0.4-0.9,0.8-1.8,1.2-2.7c-8.2-1.7-16.3-3.6-24.4-5.7
					c0.4,0.5,0.7,1,1.1,1.4c0-0.8,0.1-1.7,0.1-2.5c-0.6,0.5-1.3,1-1.9,1.4c17.2,5.2,36.7,10.3,53-0.3c1.6-1,0.1-3.6-1.5-2.6
					c-15.6,10.1-34.2,5-50.7,0c-1-0.3-1.9,0.5-1.9,1.4c0,0.8-0.1,1.7-0.1,2.5c0,0.6,0.5,1.3,1.1,1.4c8.1,2.1,16.2,4,24.4,5.7
					c1.6,0.3,2.8-1.9,1.2-2.7c-4.8-2.4-9.8-4.3-15-5.7c-1.9-0.5-2.6,2.2-0.8,2.9c4.7,1.8,9.3,3.6,14,5.4c0.3-1,0.5-1.9,0.8-2.9
					c-5.1-1.5-10.1-2.1-15.4-1.9c-1.6,0.1-2.1,2.5-0.4,2.9c4.7,1.1,9,2.7,13.2,4.9c0.4-0.9,0.8-1.8,1.2-2.7c-4.5-1.4-9-2.8-13.4-4.3
					c-1.4-0.4-2.6,1.5-1.5,2.5c0.1,0.1,0.2,0.2,0.4,0.3C565.2,417.8,567.3,415.7,565.9,414.4L565.9,414.4z"/>
			</g>
		</g>
		<g>
			<g>
				<path class="st5" d="M548.8,411.7c6.8-3.9,12.7-1.4,19.3,1.1c5.6,2.2,11.2,4.4,16.8,6.6c1.8,0.7,2.6-2.2,0.8-2.9
					c-7.3-2.9-14.5-6-21.9-8.6c-5.8-2.1-11.2-2-16.6,1.1C545.7,410,547.2,412.6,548.8,411.7L548.8,411.7z"/>
			</g>
		</g>
		<g>
			<g>
				<path class="st6" d="M3,160.2C3,107.3,3,54.4,3,1.5c0-1.9-3-1.9-3,0c0,52.9,0,105.8,0,158.7C0,162.1,3,162.1,3,160.2L3,160.2z"
					/>
			</g>
		</g>
		<g>
			<g>
				<path class="st6" d="M1.5,3c50.9,0,101.8,0,152.7,0c1.9,0,1.9-3,0-3C103.3,0,52.4,0,1.5,0C-0.4,0-0.4,3,1.5,3L1.5,3z"/>
			</g>
		</g>
		<g>
			<g>
				<path class="st6" d="M0.8,161.6c1.3,2,3.3,3.5,5.6,4c1.9,0.4,2.7-2.5,0.8-2.9c-1.6-0.4-2.9-1.2-3.8-2.6
					C2.4,158.5-0.2,160,0.8,161.6L0.8,161.6z"/>
			</g>
		</g>
		<g>
			<g>
				<path class="st6" d="M3.3,294.8c0,54.9,0,109.8,0,164.7c0,1.9,3,1.9,3,0c0-54.9,0-109.8,0-164.7C6.3,292.9,3.3,292.9,3.3,294.8
					L3.3,294.8z"/>
			</g>
		</g>
		<g>
			<g>
				<path class="st6" d="M4.8,462.3c52.2,0,104.4,0,156.7,0c1.9,0,1.9-3,0-3c-52.2,0-104.4,0-156.7,0C2.9,459.3,2.9,462.3,4.8,462.3
					L4.8,462.3z"/>
			</g>
		</g>
		<g>
			<g>
				<path class="st6" d="M159.9,462.8c4.5-0.9,7.7-4.8,8-9.3c0.1-1.9-2.9-1.9-3,0c-0.2,3.2-2.7,5.8-5.8,6.4
					C157.2,460.2,158,463.1,159.9,462.8L159.9,462.8z"/>
			</g>
		</g>
		<g>
			<g>
				<path class="st6" d="M489.5,451c-2.2,0.2-2.9,2.5-1.9,4.3c0.5,0.9,1.3,1.4,2.2,1.7c0.8,0.3,1.8,0.3,2.4,1c0.5,0.6,1.6,0.5,2.1,0
					c0.6-0.6,0.5-1.5,0-2.1c-0.9-1.1-2.2-1.3-3.5-1.7c-0.4-0.1-0.6-0.1-0.7-0.5c0,0.1-0.1-0.3,0-0.3c0,0-0.4,0.5-0.7,0.5
					C491.5,453.9,491.5,450.9,489.5,451L489.5,451z"/>
			</g>
		</g>
		<g>
			<g>
				<path class="st6" d="M492.2,459.7c52.4,0,104.9,0,157.3,0c1.9,0,1.9-3,0-3c-52.4,0-104.9,0-157.3,0
					C490.2,456.7,490.2,459.7,492.2,459.7L492.2,459.7z"/>
			</g>
		</g>
		<g>
			<g>
				<path class="st6" d="M651,456.8c0-51.8,0-103.6,0-155.3c0-1.9-3-1.9-3,0c0,51.8,0,103.6,0,155.3C648,458.8,651,458.8,651,456.8
					L651,456.8z"/>
			</g>
		</g>
		<g>
			<g>
				<path class="st6" d="M648.6,163.3c1.9-1.6,3-4,3-6.5c0-1.9-3-1.9-3,0c0,1.8-0.8,3.2-2.1,4.4C645,162.4,647.2,164.6,648.6,163.3
					L648.6,163.3z"/>
			</g>
		</g>
		<g>
			<g>
				<path class="st6" d="M651.7,160.2c0-52.4,0-104.9,0-157.3c0-1.9-3-1.9-3,0c0,52.4,0,104.9,0,157.3
					C648.7,162.1,651.7,162.1,651.7,160.2L651.7,160.2z"/>
			</g>
		</g>
		<g>
			<g>
				<path class="st6" d="M488.2,3.7c53.6,0,107.1,0,160.7,0c1.9,0,1.9-3,0-3c-53.6,0-107.1,0-160.7,0C486.2,0.7,486.2,3.7,488.2,3.7
					L488.2,3.7z"/>
			</g>
		</g>
		<g>
			<g id="XMLID_1_">
				<g>
					<path class="st1" d="M148.1,420.7c7.2,4.1,19.1,20.9,18.5,31.7c-0.2,3.4-1.6,6.1-4.8,7.8h-51.4l34.9-40.9
						C146.2,419.7,147.2,420.2,148.1,420.7z"/>
					<polygon class="st7" points="145.3,419.3 110.4,460.2 79.4,460.2 117.8,415.2 					"/>
					<path class="st1" d="M145.3,419.3l-27.5-4.1C127.4,414.6,136.9,415.4,145.3,419.3z"/>
					<path class="st1" d="M117.8,415.2l-38.4,44.9h-18l35.8-41.9c1.7-0.3,3.4-0.7,5.1-1C107.4,416.3,112.6,415.6,117.8,415.2z"/>
					<polygon class="st7" points="97.2,418.2 61.4,460.2 56.8,460.2 91.7,419.3 					"/>
					<path class="st1" d="M91.7,419.3l-34.9,40.9H5.5v-62.4l40.4-47.4c-0.9,7.3-2.9,14.5-5.5,21.4c-2.4,6.3-5.3,12.5-6.6,19.1
						c-1.3,6.6-1,13.8,2.8,19.4c4.1,6.1,11.7,9.6,19.2,11C67.7,423.5,79.8,421.6,91.7,419.3z"/>
					<path class="st1" d="M46.5,339c0,1.2,0.1,2.4,0,3.6l-41,48V387L46.5,339z"/>
					<polygon class="st7" points="46.5,342.6 45.9,350.4 5.5,397.7 5.5,390.7 					"/>
					<path class="st1" d="M45.9,350.4l0.6-7.7C46.5,345.2,46.3,347.8,45.9,350.4z"/>
					<path class="st1" d="M46.5,339l-1.1-9.4C46,332.7,46.3,335.8,46.5,339z"/>
					<polygon class="st8" points="45.3,329.6 46.5,339 5.5,387 5.5,376.2 					"/>
					<path class="st1" d="M45.3,329.6L5.5,376.2v-8.3l38.1-44.6C44.3,325.4,44.9,327.5,45.3,329.6z"/>
					<path class="st1" d="M43.6,323.3l-14-19.9c6,4.9,10.8,11.4,13.5,18.5C43.3,322.3,43.4,322.8,43.6,323.3z"/>
					<polygon class="st7" points="29.6,303.4 43.6,323.3 5.5,367.9 5.5,331.6 					"/>
					<path class="st1" d="M29.6,303.4L5.5,331.6v-33.8c0.5-1.4,1.2-2.5,2.1-3c5.1-3,17,4.8,20.7,7.6
						C28.8,302.7,29.2,303.1,29.6,303.4z"/>
				</g>
				<g>
				</g>
			</g>
		</g>
		<g>
			<g id="XMLID_2_">
				<g>
					<path class="st1" d="M38.9,143.8c-3.8,7.1-19.5,19.1-29.5,18.4C6.5,162,4,160.8,2.5,158l0-51.7L40.3,141
						C39.9,141.9,39.4,142.9,38.9,143.8z"/>
					<polygon class="st7" points="40.3,141 2.5,106.3 2.5,75.2 44.1,113.5 44.1,113.5 					"/>
					<path class="st1" d="M40.3,141l3.8-27.5C44.7,123.1,43.9,132.6,40.3,141z"/>
					<path class="st1" d="M44.1,113.5L2.5,75.2l0-18l38.8,35.7c0.3,1.7,0.6,3.4,0.9,5.1C43.1,103.1,43.8,108.3,44.1,113.5z"/>
					<polygon class="st8" points="41.3,92.9 2.5,57.2 2.5,52.6 40.4,87.4 					"/>
					<path class="st1" d="M40.4,87.4L2.5,52.6l0-51.1l58.4,0l43.7,40.2c-6.8-0.9-13.5-2.9-19.9-5.5C78.8,33.9,73.1,31,67,29.6
						c-6.1-1.3-12.8-1-18.1,2.8c-5.7,4.1-8.9,11.6-10.3,19.2C36.5,63.4,38.2,75.5,40.4,87.4z"/>
					<path class="st8" d="M115.2,42.3c-1.1,0-2.3,0.1-3.4,0l0,0L67.5,1.5l3.4,0L115.2,42.3z"/>
					<polygon class="st7" points="111.8,42.3 104.6,41.7 104.6,41.7 60.9,1.5 67.5,1.5 					"/>
					<path class="st1" d="M104.6,41.7l7.2,0.6C109.4,42.3,107,42.1,104.6,41.7z"/>
					<polygon class="st8" points="115.2,42.3 115.2,42.3 70.9,1.5 80.9,1.5 123.9,41.1 					"/>
					<path class="st1" d="M115.2,42.3l8.7-1.1C121.1,41.8,118.2,42.1,115.2,42.3z"/>
					<path class="st1" d="M123.9,41.1L123.9,41.1L80.9,1.5l7.7,0l41.2,37.9C127.9,40.1,125.9,40.7,123.9,41.1z"/>
					<polygon class="st8" points="129.8,39.4 129.8,39.4 88.6,1.5 122.3,1.5 148.4,25.5 					"/>
					<path class="st1" d="M129.8,39.4l18.6-14c-4.6,6-10.6,10.8-17.2,13.5C130.7,39.1,130.2,39.3,129.8,39.4z"/>
					<path class="st1" d="M148.4,25.5l-26-23.9l31.6,0c1.1,0.5,2,1.1,2.5,2c2.8,5.1-4.5,17-7.1,20.7C149,24.6,148.7,25,148.4,25.5z"
						/>
				</g>
				<g>
				</g>
			</g>
		</g>
		<g>
			<g id="XMLID_3_">
				<g>
					<path class="st1" d="M506.8,40.3c-7.2-3.8-19.1-19.4-18.5-29.5c0.2-3.8,2.3-6.7,7-8h49.9l-35.6,38.8
						C508.6,41.2,507.7,40.8,506.8,40.3z"/>
					<polygon class="st7" points="509.6,41.6 545.2,2.8 576.2,2.8 537.1,45.4 					"/>
					<path class="st1" d="M509.6,41.6l27.5,3.8C527.5,46,518,45.3,509.6,41.6z"/>
					<path class="st1" d="M537.1,45.4l39.1-42.6h18l-36.5,39.8c-1.7,0.3-3.4,0.6-5.1,0.9C547.5,44.4,542.3,45.1,537.1,45.4z"/>
					<polygon class="st7" points="557.6,42.7 594.2,2.8 598.8,2.8 563.1,41.7 					"/>
					<path class="st8" d="M563.1,41.7l35.6-38.8h50.1v59.5l-39.9,43.5c0.9-6.8,2.9-13.5,5.5-19.9c2.4-5.9,5.3-11.6,6.6-17.8
						c1.3-6.1,1-12.8-2.8-18.1c-4.1-5.7-11.7-8.9-19.2-10.2C587.1,37.7,575.1,39.5,563.1,41.7z"/>
					<path class="st1" d="M608.4,116.4c0-1.1-0.1-2.3,0-3.4l40.5-44.1v3.4L608.4,116.4z"/>
					<polygon class="st7" points="608.4,113 608.9,105.8 648.8,62.3 648.8,68.9 					"/>
					<path class="st1" d="M608.9,105.8l-0.6,7.2C608.4,110.6,608.6,108.2,608.9,105.8z"/>
					<path class="st1" d="M608.4,116.4l1.1,8.7C608.9,122.3,608.5,119.4,608.4,116.4z"/>
					<polygon class="st7" points="609.5,125.2 608.4,116.4 648.8,72.4 648.8,82.3 					"/>
					<path class="st1" d="M609.5,125.2l39.3-42.8v7.7L611.3,131C610.6,129.1,610,127.2,609.5,125.2z"/>
					<path class="st1" d="M611.3,131l14,18.5c-6-4.6-10.8-10.6-13.5-17.2C611.6,131.9,611.4,131.5,611.3,131z"/>
					<polygon class="st7" points="625.3,149.6 611.3,131 648.8,90.1 648.8,123.9 					"/>
					<path class="st1" d="M625.3,149.6l23.6-25.7v32c-0.4,0.7-0.9,1.3-1.6,1.7c-5.1,2.8-17-4.4-20.7-7.1
						C626.1,150.2,625.7,149.9,625.3,149.6z"/>
				</g>
				<g>
				</g>
			</g>
		</g>
		<g>
			<g id="XMLID_4_">
				<g>
					<path class="st1" d="M506.5,420c-7.1,3.8-19.1,19.4-18.5,29.5c0.1,1.8,0.6,3.4,1.6,4.7c0.9,0.4,1.7,0.8,2.5,1.3H543l-33.8-36.8
						C508.3,419.1,507.4,419.5,506.5,420z"/>
					<polygon class="st7" points="509.2,418.7 543,455.5 574,455.5 536.8,414.9 					"/>
					<path class="st1" d="M509.2,418.7l27.5-3.8C527.2,414.3,517.6,415.1,509.2,418.7z"/>
					<path class="st1" d="M536.8,414.9l37.3,40.6h18l-34.7-37.8c-1.7-0.3-3.4-0.6-5.1-0.9C547.2,415.9,542,415.2,536.8,414.9z"/>
					<polygon class="st7" points="557.3,417.7 592,455.5 596.6,455.5 562.8,418.7 					"/>
					<path class="st8" d="M562.8,418.7l33.8,36.8h52.3c0-0.4,0-0.9,0-1.3v-55.8l-40.2-43.9c0.9,6.8,2.9,13.5,5.5,19.9
						c2.4,5.9,5.3,11.6,6.6,17.8c1.3,6.1,1,12.8-2.8,18.1c-4.1,5.7-11.7,8.9-19.2,10.2C586.8,422.6,574.8,420.8,562.8,418.7z"/>
					<path class="st1" d="M608.1,343.9c0,1.1-0.1,2.3,0,3.4l40.8,44.5v-3.4L608.1,343.9z"/>
					<polygon class="st7" points="608,347.3 608.6,354.5 648.8,398.4 648.8,391.8 					"/>
					<path class="st1" d="M608.6,354.5l-0.6-7.2C608.1,349.7,608.3,352.1,608.6,354.5z"/>
					<path class="st1" d="M608.1,343.9l1.1-8.7C608.6,338,608.2,340.9,608.1,343.9z"/>
					<polygon class="st7" points="609.2,335.2 608.1,343.9 648.8,388.3 648.8,378.4 					"/>
					<path class="st1" d="M609.2,335.2l39.6,43.2v-7.7L611,329.3C610.2,331.2,609.7,333.2,609.2,335.2z"/>
					<path class="st1" d="M611,329.3l14-18.5c-6,4.6-10.8,10.6-13.5,17.2C611.3,328.4,611.1,328.9,611,329.3z"/>
					<polygon class="st7" points="624.9,310.8 611,329.3 648.8,370.6 648.8,336.8 					"/>
					<path class="st1" d="M624.9,310.8l23.9,26.1v-31.7c-0.5-1-1.1-1.9-1.9-2.3c-5.1-2.8-17,4.4-20.7,7.1
						C625.8,310.1,625.4,310.5,624.9,310.8z"/>
				</g>
				<g>
				</g>
			</g>
		</g>
		<g id="XMLID_5_" class="st9">
			<g>
				<path d="M118,306.2c-5.2-25.8-2.4-53.1,7.9-77.3c1-2.3,2.1-4.7,1.8-7.2c-0.2-2.4-1.6-4.5-2.8-6.6c-4.7-8.5-6-18.8-3.5-28.2
					c16.3,1.9,32.8,2.3,49.1,1.3c-12.7-3.1-25.3-6.3-38-9.4c-2.6-0.6-5.4-1.4-7.2-3.4c-1.5-1.7-2.1-4-2.6-6.3
					c-2.1-9.3-4.2-18.7-6.3-28c-0.6-2.5-1.1-5.1-0.7-7.6c0.7-4.1,3.8-7.3,5.7-11c5.1-9.8-0.1-23.4-10.4-27.4c5.6-3,11.1-6,16.7-9
					l0.3,0.5c9.4-4,20-4.2,30.2-4.2c111.3,0.8,222.8,7.3,334.4,11.4c21.3,0.8,40.8,1.1,60.2-7.9c-7.5,5.5-7.1,12.5-13.5,19.2
					c5.4,4.3,3.3,7.9,8.7,12.2c-4.5,19.4-5.7,39.6-3.6,59.4c-7.3-0.3-14.6,0.1-21.9,1.2c7.9,1.5,15.9,3,23.8,4.6
					c-4.6,29.2-3.7,59.2,2.8,88c-6.5,0.2-13.1,0.4-19.6,0.6c5.1,2.7,10.6,4.5,16.3,5.4c0.5,23.6,1.1,47.3,1.6,71
					c-12.5-0.6-25,0.3-37.2,2.7c13.2,4.1,27.4,5.5,41.1,4c-0.7,3.4-1.4,6.8-2.1,10.2c-102.1-18.3-206.9-21.6-309.9-9.9
					c-43.8,5-88.2,12.7-131.6,5.1c2.4-6.4,3.3-13.4,2.6-20.2c11.4,0.5,22.8-0.1,34-1.7c-10.6,0.7-21.4-1.1-31.3-5.2
					c0-6.4,0-12.9,0-19.3c8-0.4,16-2,23.4-4.8C130.3,308.8,124,308,118,306.2z"/>
			</g>
			<g>
			</g>
		</g>
		<g id="XMLID_6_">
			<g>
				<path class="st10" d="M108.8,350.7c2.4-6.4,3.3-13.4,2.6-20.2c11.4,0.5,22.8-0.1,34-1.7c-10.6,0.7-21.4-1.1-31.3-5.2
					c0-6.4,0-12.9,0-19.3c8-0.4,16-2,23.4-4.8c-6.3,0.3-12.6-0.5-18.6-2.3c-5.2-25.8-2.4-53.1,7.9-77.3c1-2.3,2.1-4.7,1.8-7.2
					c-0.2-2.4-1.6-4.5-2.8-6.6c-4.7-8.5-6-18.8-3.5-28.2c16.3,1.9,32.8,2.3,49.1,1.3c-12.7-3.1-25.3-6.3-38-9.4
					c-2.6-0.6-5.4-1.4-7.2-3.4c-1.5-1.7-2.1-4-2.6-6.3c-2.1-9.3-4.2-18.7-6.3-28c-0.6-2.5-1.1-5.1-0.7-7.6c0.7-4.1,3.8-7.3,5.7-11
					c5.1-9.8-0.1-23.4-10.4-27.4c5.6-3,11.1-6,16.7-9l0.3,0.5c9.4-4,20-4.2,30.2-4.2c111.3,0.8,222.8,7.3,334.4,11.4
					c21.3,0.8,40.8,1.1,60.2-7.9c-7.5,5.5-7.1,12.5-13.5,19.2c5.4,4.3,3.3,7.9,8.7,12.2c-4.5,19.4-5.7,39.6-3.6,59.4
					c-7.3-0.3-14.6,0.1-21.9,1.2c7.9,1.5,15.9,3,23.8,4.6c-4.6,29.2-3.7,59.2,2.8,88c-6.5,0.2-13.1,0.4-19.6,0.6
					c5.1,2.7,10.6,4.5,16.3,5.4c0.5,23.6,1.1,47.3,1.6,71c-12.5-0.6-25,0.3-37.2,2.7c13.2,4.1,27.4,5.5,41.1,4
					c-0.7,3.4-1.4,6.8-2.1,10.2c-102.1-18.3-206.9-21.6-309.9-9.9C196.6,350.6,152.2,358.3,108.8,350.7z"/>
			</g>
			<g>
				<path class="st11" d="M129.1,77.6c9.4-4,20-4.2,30.2-4.2c111.3,0.8,222.8,7.3,334.4,11.4c21.3,0.8,40.8,1.1,60.2-7.9
					c-7.5,5.5-7.1,12.5-13.5,19.2c5.4,4.3,3.3,7.9,8.7,12.2c-4.5,19.4-5.7,39.6-3.6,59.4c-7.3-0.3-14.6,0.1-21.9,1.2
					c7.9,1.5,15.9,3,23.8,4.6c-4.6,29.2-3.7,59.2,2.8,88c-6.5,0.2-13.1,0.4-19.6,0.6c5.1,2.7,10.6,4.5,16.3,5.4
					c0.5,23.6,1.1,47.3,1.6,71c-12.5-0.6-25,0.3-37.2,2.7c13.2,4.1,27.4,5.5,41.1,4c-0.7,3.4-1.4,6.8-2.1,10.2
					c-102.1-18.3-206.9-21.6-309.9-9.9c-43.8,5-88.2,12.7-131.6,5.1c2.4-6.4,3.3-13.4,2.6-20.2c11.4,0.5,22.8-0.1,34-1.7
					c-10.6,0.7-21.4-1.1-31.3-5.2c0-6.4,0-12.9,0-19.3c8-0.4,16-2,23.4-4.8c-6.3,0.3-12.6-0.5-18.6-2.3c-5.2-25.8-2.4-53.1,7.9-77.3
					c1-2.3,2.1-4.7,1.8-7.2c-0.2-2.4-1.6-4.5-2.8-6.6c-4.7-8.5-6-18.8-3.5-28.2c16.3,1.9,32.8,2.3,49.1,1.3
					c-12.7-3.1-25.3-6.3-38-9.4c-2.6-0.6-5.4-1.4-7.2-3.4c-1.5-1.7-2.1-4-2.6-6.3c-2.1-9.3-4.2-18.7-6.3-28
					c-0.6-2.5-1.1-5.1-0.7-7.6c0.7-4.1,3.8-7.3,5.7-11c5.1-9.8-0.1-23.4-10.4-27.4c5.6-3,11.1-6,16.7-9c1.2-0.7,2.4-1.3,3.7-2"/>
			</g>
		</g>
		<g>
			<g>
				<g>
					<g>
						<g>
							<path class="st12" d="M130.7,163.9c-0.2,0.1-0.1,0.3,0.5,0.2l0.4-0.3L130.7,163.9z"/>
							<path class="st12" d="M134.6,164.5c0.7-0.2,1.5-0.4,1-0.7c-0.7,0.3-0.8,0.2-1.6,0.6c-0.6,0-1-0.1-0.9-0.2
								c-0.2,0.1-0.9-0.1-1.2,0.1c0.8,0.3,1.7,0.3,2.7,0.1C134.9,164.4,134.7,164.4,134.6,164.5z"/>
							<path class="st12" d="M191.6,165l-0.4,0C191.4,165,191.5,165,191.6,165z"/>
							<path class="st12" d="M226.9,165.2c-0.3,0-0.4,0-0.4,0.1C226.8,165.3,227,165.2,226.9,165.2z"/>
							<path class="st12" d="M233,165.6c-0.1,0-0.2,0-0.4,0C232.8,165.6,232.9,165.6,233,165.6z"/>
							<path class="st12" d="M191.6,165l0.9,0.1C192.6,165,192.1,165,191.6,165z"/>
							<path class="st12" d="M142.5,163.7c-0.2,0-0.4,0-0.5,0.1C142.1,163.8,142.3,163.8,142.5,163.7
								C142.5,163.7,142.5,163.7,142.5,163.7z"/>
							<path class="st12" d="M176.1,165.3l-0.3,0c-0.1,0-0.2,0.1-0.2,0.1L176.1,165.3z"/>
							<path class="st12" d="M164.1,165.3c0.3,0,0.4-0.3,0.5-0.4c-0.2,0.1-0.4,0.2-0.6,0.2C164,165.2,164,165.3,164.1,165.3z"/>
							<path class="st12" d="M145.2,164.8l-0.3,0C144.9,164.9,145.1,164.9,145.2,164.8z"/>
							<path class="st12" d="M184.6,165.4c0,0,0.1,0.1,0.1,0.1C184.7,165.4,184.7,165.4,184.6,165.4z"/>
							<path class="st12" d="M518.8,163.2C518.8,163.3,518.8,163.3,518.8,163.2C518.9,163.3,518.9,163.2,518.8,163.2z"/>
							<path class="st12" d="M532.7,164.6l-0.2,0c0,0.1,0,0.1,0,0.2L532.7,164.6z"/>
							<path class="st12" d="M244,165.9C244,165.9,244,165.9,244,165.9C243.7,166,243.8,166,244,165.9z"/>
							<path class="st12" d="M345.3,165.7c-1.1-0.3,1.9-0.3,0.1-0.6C345.6,165.2,343.9,165.6,345.3,165.7z"/>
							<path class="st12" d="M142.8,163.7c0.2,0,0.3,0,0.5,0C143.1,163.7,142.9,163.7,142.8,163.7z"/>
							<path class="st12" d="M345.5,165.1C345.5,165.1,345.5,165.1,345.5,165.1l-0.2,0C345.4,165.1,345.4,165.1,345.5,165.1z"/>
							<path class="st12" d="M269.4,165.8c-0.1,0-0.2-0.1-0.3-0.1C269.2,165.7,269.2,165.7,269.4,165.8z"/>
							<path class="st12" d="M250.5,165.4l0.5,0C250.8,165.4,250.6,165.4,250.5,165.4z"/>
							<path class="st12" d="M279.3,165.4c0.3,0,0.3,0.1,0.7,0c0,0-0.1,0-0.1,0C279.7,165.4,279.6,165.4,279.3,165.4z"/>
							<path class="st12" d="M289.5,165.4c-0.1,0-0.1,0-0.2-0.1c-0.1,0-0.2,0-0.3,0L289.5,165.4z"/>
							<path class="st12" d="M487.7,163.4c0.2,0.1,0.4,0.2,0.5,0.3C488,163.4,489.5,163.4,487.7,163.4z"/>
							<path class="st12" d="M142.5,163.9c0.1-0.1,0.1-0.1,0.3-0.1c-0.1,0-0.2,0-0.3,0C142.4,163.8,142.4,163.8,142.5,163.9z"/>
							<path class="st12" d="M279.7,163.1l1.6,0C280.9,163.2,280.3,163.1,279.7,163.1z"/>
							<path class="st12" d="M414.3,163.4l0.4,0C414.5,163.4,414.4,163.4,414.3,163.4z"/>
							<path class="st12" d="M286.1,163.1c0.3,0.1,0.6,0.2,0.9,0.2c0.1,0,0.1,0,0.2-0.1L286.1,163.1z"/>
							<path class="st12" d="M488.2,163.6C488.2,163.6,488.2,163.6,488.2,163.6C488.2,163.6,488.2,163.6,488.2,163.6z"/>
							<path class="st12" d="M498.9,163c-1.5,0-0.7,0.4-1.1,0.6c-1.8,0.1-0.9-0.3-1.5-0.5c-1.2,0.1-2,0.4-2.9,0.4
								c-0.1-0.1-0.2-0.1,0-0.2c-1.2,0.3-3.6,0-5,0.4c-0.1,0-0.2-0.1-0.2-0.1c0.2,0.2,0.3,0.4,0.2,0.5c-0.7,0-1.3,0.2-1.6,0
								c0.4,0,0.5-0.1,0.7-0.2l-0.7,0.1c-0.7-0.3,1-0.1,1-0.4c-1.4,0.1-3.1,0.4-4.2,0.3c-0.2-0.3,2.5-0.1,1.1-0.4l1.7,0.1
								c-1.3-0.5,1,0-0.2-0.5c-2.2-0.1-2.5,0.2-4.7,0.1c-0.5,0.2,0.2,0.3-0.3,0.5c-3.1,0.3-2.5-0.9-4.8-0.4
								c-0.6,0.2-0.8,0.7-2.5,0.4l0.6-0.4c-2.1,0-1.2,0.6-3.5,0.3c0.4-0.2,1.7-0.1,1.4-0.2c-1.5-0.3-1,0.2-2.1,0.2l-0.2-0.3
								c-2.3,0.1-4.8,0.3-7.3,0.4c0.1-0.1,0.6-0.2,0-0.3c-3.2,0.2-6.8,0-9.9-0.2l-1.2,0.3c-0.3,0-0.5-0.1-0.2-0.2
								c-1.2-0.1-0.1,0.2-0.6,0.3c-0.7,0-0.9-0.2-0.5-0.3c-2.1,0.2-6,0.5-8.3,0.2l0.4-0.1c-1.7-0.1-2,0.6-3.6,0.3l0.3-0.1
								c-3.8-0.1-7.9,0.1-10.8-0.3c-0.5,0.4-3.7-0.2-4,0.4c-2.2-0.3-1.5-0.4-4.6-0.6c-0.8,0-1.2,0.4-2.2,0.4l0-0.3l-1.4,0.3
								l-0.7-0.4l-0.9,0.1c0.4,0,0.8,0.1,0.7,0.2c-1.5,0.1-3.6-0.2-3.6-0.4l-3.5,0.3c0.1-0.1,0.7-0.2,1.1-0.2c-1.9,0.3-0.3-0.3-2,0
								c0.2,0.1-0.1,0.2-0.2,0.2c-0.8-0.2-2.8-0.2-4.2-0.1l0.3-0.2c-2.6-0.1-5.4,0.1-8.3,0.1c1,0.1,0.8,0.5,0,0.5l-0.3-0.3
								c-0.5,0.2,0.9,0.1-0.2,0.4c-1.1,0-0.7-0.4-0.1-0.5l-1.3,0.1c-0.1-0.1,0.2-0.1,0.3-0.3c-0.5,0.2-2.3-0.3-3,0l-0.1-0.1
								c-2.9,0-4.2,0.1-6.5,0.1c0,0.3-1,0.2-1.7,0.4c-1.7-0.1-3.6-0.3-5.7-0.3c-1.5,0.1-0.4,0.2-1.1,0.4c-0.1-0.3-2.2-0.2-1.1-0.4
								c-2.5,0-3.2,0.1-6.3,0.3c0.3,0.1,0.7,0.2,0.5,0.2c-0.6,0-1.3-0.1-1.2-0.2l0.2,0c-3.5,0.4-8.2-0.7-11-0.2l0.2,0l-2.9,0.3
								c-1.3,0,0.8-0.2-0.2-0.4c-3.2,0.4-5-0.1-7.6,0.2c-2-0.8-7.1,0.1-9.9-0.4l0.2,0.2c-0.7,0.2-0.8-0.1-1.4-0.1
								c0.1,0.1,0.8,0.2,0.3,0.3c-6,0.2-12.3-0.3-18.4-0.4c-2.2,0-1.3,0.9-4.1,0.5l0.8-0.3c-4.5,0.4-9.2,0-13.6,0.3
								c0.3-0.1,0.3-0.2,0.7-0.2c-0.9-0.2-3.4,0-3.5,0.2c-0.7,0-0.2-0.2-0.6-0.3c-0.9-0.1-2.3,0.3-2.8,0.1c-0.1,0,0.3-0.1,0.4-0.1
								c-0.6,0.1-2.8,0-2.3,0.2c-1.7-0.1-3.2,0.1-4.5,0c-0.9,0.3-2.8-0.1-3.1,0.3c0.1-0.5-2.9-0.4-3.9-0.2c0.4-0.1-0.9-0.1-0.5-0.3
								c-1.2,0-2.3,0.1-2.1,0.3c-2.2-0.5-4.4,0.4-5.7-0.3c-3.5,0.2-6.8,0.4-10,0.5c0.1-0.5,3.5,0,3.4-0.5c-3,0.2-4.8,0.6-7.8,0.5
								c-0.8-0.1,0.4-0.2,0.7-0.3c-3,0.2-5.8,0-8.5,0.2c0,0,0.3-0.1,0.6-0.1c-0.5,0-1.2-0.1-1.2,0.1l0.5-0.1
								c0.8,0.3-2.1,0.6-2.2,0.8c0.9-0.6-2.7-0.1-1.2-0.9c-0.3,0-0.8,0.1-0.7,0.3c-0.5,0-0.7-0.1-0.2-0.3c-1.9,0.1-1.2,0.3-2.9,0.3
								c0-0.1,0.4-0.1,0.5-0.3c-0.9,0.2-1.7,0.4-3.2,0.3c0.1-0.1-0.1-0.1,0.4-0.1c-2.5,0-4.3,0.5-7,0.3c0.8-0.4-0.9-0.1-1.1-0.5
								l-1.5,0.1l0.6,0.2c-1.3,0-2.4,0.3-3.5,0.1l1-0.2l-2.4,0.1l1.4,0.1c-1.3,0.2,0.1,0.5-1.6,0.4c0.3,0-1.3,0-2-0.2c0,0,0,0,0,0
								c-0.6,0.1-1.3,0.2-2.2,0.2c-0.2-0.1,0.2-0.4,0-0.5c-0.6,0.3-3,0.1-3.8,0.4c0.3-0.1,0.3-0.3,0.2-0.3l-0.5,0.3
								c-0.6-0.1-0.7-0.1-0.6-0.3c-1.8,0,0.6,0.5-1.6,0.3c0.2,0,0.1-0.1,0.4-0.1c-2.1-0.1-4.1,0.2-6.1,0c-0.6-0.4,1.7-0.1,1.1-0.4
								c-2.8,0.1-5.9,0.5-8.6,0.4l0.5,0c-0.4,0.5-2-0.3-3.4,0c0.3,0,0.4-0.3,0.4-0.2c-1.9-0.1-3.8,0.1-6.7,0.3l0.4-0.1
								c-1.1-0.1-2.9-0.1-4.1-0.1c-0.4,0.1-1,0.1-0.6,0.3c-3.7-0.8-7,0.4-10.3-0.2c0.4,0,0.9-0.1,0.6-0.1l-2.8,0.1
								c0.2,0.2,0.4,0.1,1,0.3c-0.4,0.1-1.1,0.2-1.8,0.2c1.3-0.2,0-0.4-0.6-0.5c0.1,0.1-0.1,0.1,0,0.2c-1.5-0.4-0.2,0.5-2.2,0.2
								l0.1-0.1c-0.7,0.1-1.4,0.2-2.2,0.2c-0.3-0.3,0.8-0.1,0.8-0.3c-1.1,0-2.2,0.5-3.2,0.2c0.5-0.1,1.2-0.1,1.6-0.1
								c-1.1-0.3-1.2-0.2-2.1-0.3l0.1,0l-1.9-0.1l0.5,0.1c-1.4,0.7-2.9,0.1-4.8,0.6c1.8-0.4,0.3-0.3,0.4-0.6c-0.5-0.1-1.2-0.2-1-0.3
								c-0.9,0.2-1.5-0.2-2.8,0.2c-0.1-0.1-1,0-0.8-0.3c-1.2,0.1,0.3,0.2,0.2,0.3c-1.8,0.3-4.2-0.4-6.8,0.1
								c-2.2,0.2-2.6,0.5-4.7,0.7c-0.7-0.2,0.6-0.4,0.6-0.4c-1.1-0.1-2-0.1-3,0c0.2-0.1,0-0.2-0.3-0.3c-0.9,0-0.6,0.4-1.7,0.2
								c0.2-0.1,0.4-0.3,0.9-0.4c-1,0.1-2,0.3-3,0.4c-0.3-0.2,0.6-0.3,1-0.4c-1.2,0.1-3,0.2-3.4,0.4l0.8,0.1c-0.4,0-0.2-0.2,0.1-0.3
								c1-0.2,1.4,0.1,1.5,0.2l-0.7,0.1c0.8,0.6,3-0.1,4.5-0.1l-0.6,0.4l1.5-0.3c0.3,0.1,0.5,0.3-0.2,0.4c1.1,0.2,0.9-0.1,1.9,0.1
								c0.1,0,0.1,0.1,0,0.1l1-0.1c-0.2,0.1,0.2,0.3-0.5,0.2c1.9,0.2,3-0.3,3.7,0l-0.2,0c2.6-0.1,0.3-0.3,2.2-0.7l1.3,0.8l0.3-0.3
								c0.3,0,0.8,0,0.7,0.2c1-0.2-0.2-0.1,0.4-0.3c1.3,0.3,3.6-0.1,3.9,0.4c0.5-0.2-1.2-0.2,0.1-0.3c0.4,0.5,1.6-0.1,2.8,0.2
								c-0.4,0.3-1.5,0.1-0.3,0.4c0.7-0.5,2.3,0.1,3.3,0c0-0.4,2.2-0.2,3.8-0.3c-0.1,0.1,3.1,0.2,4.7,0.3l0,0.1
								c0.3-0.4,1.9-0.3,3.1-0.4c0,0.2-0.3,0.3-0.9,0.4l1.1,0c0.3-0.1,0.6-0.2,1.3-0.2l-0.3,0.3c1.5,0,2.9-0.3,4.8-0.1
								c0.1-0.3-1.5-0.7,0.5-0.9c0.1,0.1,0.1,0.4-0.4,0.4c0.2,0,0.6-0.1,1-0.1l-0.8,0.2c0.9,0.1,0.4-0.2,1.1-0.2
								c0,0.2,0.5,0.1,0.4,0.3c-0.2,0-0.6-0.1-0.9,0c0.8,0,1.7,0.2,2,0.3c-0.1-0.1,0-0.3,0.6-0.3c1.5,0,0.5,0.2,1.4,0.3
								c0.4-0.1,1.3,0,1.3-0.3c0.4,0,0.5,0.1,0.7,0.2c0.8-0.1,3.5,0,2.7-0.4l-0.2,0c0,0,0.1,0,0.1,0c0,0,0,0,0,0h0
								c2.5-0.3,5.2,0.2,7.6,0l0,0.1c1.5-0.1,3.3-0.1,4.3-0.3c0.4,0,1,0.2,0.8,0.3c1.1-0.1,1.2-0.2,2.9,0c-1.1,0.2,0.4,0.2-1.2,0.1
								c1.5,0.1,1.8,0.2,3.4,0c-0.5,0.3,1.1,0.3,1.8,0.2l-1-0.2c0.8,0,1.5,0,2.2,0l-0.4,0.3c3,0.4,5.4-0.7,7.7,0
								c0.8-0.2-1.6-0.2-0.9-0.4c1.4,0,2.8,0.5,3.2,0.5c1.9,0.2,1.8-0.5,3.7-0.4c-0.3-0.1-0.5-0.4,1-0.5c1.4,0,1.7,0.5,0.8,0.6
								c-0.3,0-0.5,0-0.5-0.1c-0.4,0-1,0.1-0.5,0.2l0.2-0.1c0.7,0.1,2.6,0.1,2.1,0.3c1-0.1,0.4-0.2-0.3-0.3c1.8,0.2,2.8,0,4.6,0.1
								c-0.3-0.1-0.6-0.2-0.3-0.2c2.7,0.1,1.2-0.2,3-0.3c1,0.2-0.4,0.4,1.4,0.3c1.1,0.1,0.2,0.3-0.2,0.4c1.7-0.2,3.1,0.2,4,0.2
								l-0.9,0.1c0.5-0.1,0.9-0.1,1.4-0.1l-0.5-0.2c0.5,0,0.9,0,0.9,0.1c0.5-0.2-0.4-0.4,0.6-0.6c0.7,0.1,2.1-0.1,2.3,0.2
								c-2.1-0.1,0.2,0.3-1.6,0.4c0.4,0,0.8,0,1.3,0c0.1,0-0.1,0.1-0.2,0.1c2.1,0.3,0.9-0.4,3.1-0.3c-0.3,0.2,0.5,0.3,0.8,0.3
								c-0.9,0-0.4-0.3,0.4-0.4c1.4,0.1,1.5-0.1,2.2-0.1l-0.8-0.1c0.3-0.2,1-0.2,1.9-0.2c0.1,0.1-0.9,0.1-0.5,0.2
								c1.1-0.3,2.4,0.3,3.9,0.1c0.7,0.1,0.1,0.3,0.7,0.4c1.7-0.2,1.8,0.2,3.5,0.1c-0.5-0.2-0.6-0.2,0.6-0.4l-2.9,0.2l1.8-0.3
								c-0.9,0-1.8,0.2-2.3,0.1c0.9-0.2,0.8-0.1,0.4-0.3c1.2,0.4,2.3-0.2,3.7,0l0,0.6c2,0.3,3.6-0.3,6.3-0.2l-0.9-0.1
								c0.4-0.2,1.6,0,2.5-0.1c-0.1,0.2,0.5,0.3,0.8,0.4c0-0.1,1.9,0,2.2-0.4l1.2,0.3c2.1,0.1,2.4-0.6,4.5-0.5
								c-0.6,0.2,0.3,0.4-1.1,0.5c0.7,0,1.3,0,1.3-0.1c0.4,0.1,1.9-0.3,2.5-0.1c0.3-0.1,0.4-0.3,1.2-0.3c0.1,0,0,0.1,0,0.1
								c0-0.1,1.2-0.1,0.5-0.4c2.1,0.6,5.9,0,7.8,0.5c1.5-0.1,3.3-0.1,4.7-0.1c-0.1,0.1,0,0.1-0.3,0.1c1.9,0.2,1.2-0.6,3.3-0.4
								c1.1,0.3-1.1,0.2-0.5,0.3c0.3,0.6,2.6-0.1,4,0.3l-0.3,0c1.1,0.2,2.7-0.2,4.5-0.2c0,0-0.1,0.1,0,0.1c1.2-0.3,3.6-0.4,5.3-0.5
								c-0.5,0.3-0.8,0.1-0.5,0.4c0.8,0-0.2-0.4,1.3-0.5c0.5,0.1,1.6,0.3,1.8,0.5l-1.5,0c0.7,0.4,1.9,0,2.7,0l-0.1,0.2
								c2.2-0.1,2.3-0.4,4.7-0.4l-0.2-0.1c1.3-0.4,1.1,0.2,2.4-0.1l0.4,0.4c0.9-0.1,3-0.4,4.6-0.5c-0.9,0.3-2.7,0.4-3.8,0.6
								c0.9,0,2.9,0,3.4-0.2c-0.3,0-0.8,0.1-1.1,0.1c1.1-0.3,2.4-0.5,4.2-0.5c-0.3,0.8,4.5,0.2,5.7,0.8c3-0.3,6,0.1,9.5,0.1
								c-1.3-0.6,1,0,0.8-0.6c0.8,0,1.1,0,1.2,0l2.5,0.4c0.6,0.2-0.8,0.1-0.7,0.3c1.8,0,0.8,0.3,1.9,0.4c-0.2-0.2,0.6-0.3,1.7-0.2
								l-1.4-0.3c2.5-0.3,2.2,0.5,4.7,0.2l-0.8,0.2c1.3-0.1,4.8,0,6.1-0.5c0.2,0.1,0.5,0.2,0,0.3c3.1,0.1,6.9-0.5,9.3-0.2l-0.2,0.1
								c0.6,0,1-0.3,1.7-0.1c0,0.1-0.2,0.1,0,0.2c0.3-0.1,1.5-0.3,2.3-0.2l-0.7,0.2c3,0.2,4.7-0.4,7.2-0.5c0,0.4,2.4,0.6,3.6,0.7
								l0,0.1c3.5,0.1,6-0.4,9.3-0.5c2,0.5,6.9,0.2,10.2,0.5c-0.5-0.1,0.1-0.3,0.7-0.4c0.8,0.1,2.1-0.3,2,0.1l-0.3,0
								c0.6,0.4,2.2,0.3,3.4,0.3l0.2-0.5c3.2,0.8,8.4-0.3,10.2,0.4c0.8-0.1,1.7-0.1,2.5-0.3l0,0.3c2.2,0.1,3.2,0.1,5.9,0l-0.5,0.2
								c1.5,0,1.9-0.8,3.3-0.8l0.4,0.4c2.6,0,5.3,0.4,7.9,0c0,0.1-0.1,0.2-0.5,0.2c1.2,0,4.8,0.3,4.3-0.3c0,0.4,2.7,0,4.1-0.1
								l-0.2,0.3c1.2-0.4,1.2-0.5,2.9-0.6c0.4,0,0.3,0.2-0.2,0.2c1.3,0.1,1-0.3,2.6-0.1l-0.6,0.2c1.4,0,1.2-0.1,2-0.3
								c0.9-0.1,2.6,0.1,2.8,0.3c0.2-0.2,0.9-0.4,1.7-0.3c0.1,0.1-0.2,0.2-0.3,0.2c2.3,0.2,3.4-0.3,4.9-0.1c0,0.1,0.1,0.1,0.3,0.2
								c-1.8,0-3.2,0-3.1,0c0,0.3,1.5,0.3,0.3,0.7c1.2-0.2,3.2-0.6,4.6-0.5c0.1,0,0.1,0,0.2,0.1l-0.1,0c0.3,0,0.6,0,0.9,0
								c0.5,0,0.7,0.1,1.2,0.1c0.2,0.2,1.7,0.1,2.4,0.1c-0.1-0.3,0.9-0.2,0-0.5c0.1,0-0.1,0-0.6,0c-0.1,0-0.2,0-0.3,0c0,0,0,0,0,0
								c-0.5,0-1.1,0-1.8,0c0.6-0.1,1.2-0.3,2-0.1c0.4-0.2,0.8-0.4,1-0.5c1,0.4,2.9,0.6,3.2,0.8c2.2-0.2,5.2-0.1,6.6-0.6
								c0.6-0.1,0.7,0.2,1,0.2c-0.4,0.1-0.8,0-1,0.1c1.3-0.1,3.7-0.1,4-0.4c1.6,0.2-0.9,0.3,1.3,0.3l-0.3,0.1
								c4.3,0.6,7-0.9,11.7-0.2c-0.3,0-0.5-0.1-0.6-0.1c5.4,0.3,11.2-0.3,16.5,0.2c1.5,0.1,1.7-0.1,2.6-0.3l0.3,0.3l1.6-0.3
								c2.2-0.3,3.9,0.7,6.7,0.3l-0.4-0.2c1,0,3.2-0.1,3.1,0.1c0.1,0,0.3-0.2,0.7-0.1l0,0.2l2.5-0.3c1.9,0.1-0.3,0.6,2.5,0.7
								c1.1-0.1,3-0.5,2.6-0.6c-0.4,0-1.1-0.1-1.1-0.3l1-0.1c0.2-0.5,0.9-0.9-1.5-1.3l-1.7,0.3l-0.5-0.2l1.4,0
								c-0.8-0.2-1.3,0-1.8,0.1c-0.1-0.1-0.4-0.2-0.7-0.2l-1.6,0.4c-0.2-0.2,0.7-0.4-0.4-0.5c-0.8,0.2,0.7,0.4-0.5,0.5
								c-0.8-0.2-0.6-0.4-1.5-0.2c-0.1-0.1,0.1-0.2,0.4-0.2c-0.8,0.1-2.2,0.1-2.6,0.3c-0.8-0.3-2.8,0.1-2.7-0.4
								c-0.3,0.1-1.5,0.3-2.2,0.4c1.4-0.5-2.8,0-2.5-0.6c-1,0.5-3.7,0.2-5.5,0.5c0.1,0,0.3-0.1,0.5-0.1c-1,0-1.3-0.2-2-0.3
								c-0.1,0.4-1.7,0.5-2.6,0.7c-1.3-0.4,0.8-0.5,0.4-0.8c0.1,0.3-2.2,0.3-1.7,0.6c-1-0.2-0.8-0.1-1.3-0.4
								c-0.2,0.5-0.9,0.1-1.7,0.4c-1.4-0.2-0.4-0.5-1.9-0.3C497.5,163.1,498.9,163,498.9,163z M462.7,163.8
								C462.7,163.8,462.7,163.8,462.7,163.8c0.3,0,0.6,0,0.7,0C463.3,163.8,463.1,163.8,462.7,163.8z M459.7,163.8
								c0.4,0,0.8,0,1.3,0c0.1,0.1,0,0.2-0.3,0.2C460.8,164,460.1,163.9,459.7,163.8z M466.1,165.8c-0.5,0-0.6,0-0.7-0.1
								c0.2,0,0.5,0,0.8,0c0,0,0,0,0.1,0C466.2,165.7,466.2,165.7,466.1,165.8z"/>
							<path class="st12" d="M467,165.4c0.1,0,0.1,0,0.2,0C467.1,165.3,467,165.3,467,165.4c-0.1-0.1-0.2,0-0.3,0
								C466.8,165.4,466.9,165.4,467,165.4z"/>
							<path class="st12" d="M191.2,165L191.2,165C191.2,165,191.2,165,191.2,165C191.2,165,191.2,165,191.2,165z"/>
							<polygon class="st12" points="417.7,163.3 417.7,163.3 417.9,163.3 							"/>
							<path class="st12" d="M174.4,164c0,0-0.1-0.1-0.2-0.1C174.2,164,174.3,164,174.4,164z"/>
							<path class="st12" d="M167.2,164l-1-0.1C166.6,163.9,166.9,163.9,167.2,164z"/>
							<path class="st12" d="M161.6,163.8c-0.1,0-0.1,0.1-0.1,0.1c0,0,0,0,0,0L161.6,163.8z"/>
							<path class="st12" d="M250.1,163.5c0.1,0,0.1,0,0.2,0C250.8,163.4,250.5,163.4,250.1,163.5z"/>
							<path class="st12" d="M223.8,164.1c0.3-0.1,0.6-0.1,0.8-0.1C224.2,164,223.8,164,223.8,164.1z"/>
							<path class="st12" d="M279.5,163.1C279.5,163.1,279.5,163.1,279.5,163.1c0.1,0,0.1,0,0.2,0L279.5,163.1z"/>
							<path class="st12" d="M225.9,164c-0.5-0.1-0.9,0-1.2,0C225,164,225.5,164.1,225.9,164z"/>
							<path class="st12" d="M137.5,163.7l-0.3,0c0,0,0,0,0,0L137.5,163.7z"/>
							<path class="st12" d="M137.2,163.7l-0.3,0C137.1,163.8,137.2,163.7,137.2,163.7z"/>
							<path class="st12" d="M136.3,163.8l0.6-0.1C136.7,163.7,136.4,163.7,136.3,163.8z"/>
							<path class="st12" d="M144.9,163.8l0.1-0.1C144.9,163.7,144.9,163.8,144.9,163.8z"/>
							<path class="st12" d="M147.1,163.8c-0.5,0-1.3-0.2-2.1-0.2l-0.1,0.1C145.3,163.6,146.6,164,147.1,163.8z"/>
							<path class="st12" d="M156.5,165l-1.9-0.1c0.3,0.1,0.8,0.3-0.1,0.3C156.9,165.6,154,165,156.5,165z"/>
							<path class="st12" d="M162.3,165.2c-1,0.1,0,0.2,0,0.2C162.9,165.3,163,165.3,162.3,165.2z"/>
							<path class="st12" d="M204.3,165.2l-0.1,0.3C205,165.4,204.2,165.4,204.3,165.2z"/>
							<polygon class="st12" points="212.4,163.9 211.6,163.7 211.2,164 							"/>
							<polygon class="st12" points="217.1,165.7 216.8,165.7 218.1,165.6 							"/>
							<path class="st12" d="M287.7,165.6l-0.2-0.3C286.9,165.4,286.8,165.7,287.7,165.6z"/>
							<path class="st12" d="M318.2,165.3c0.3,0.2,1.2,0.3,1.7,0.1C319.2,165.4,318.5,165.3,318.2,165.3z"/>
							<polygon class="st12" points="409.6,165.8 409,165.9 410.1,165.8 							"/>
						</g>
					</g>
				</g>
			</g>
		</g>
		<g>
			<ellipse class="st9" cx="519" cy="100.1" rx="7.2" ry="8.2"/>
			<g>
				<path class="st13" d="M523.6,94.9c0.4,0.8,0.6,1.6,0.6,2.6c0,3-2.4,5.4-5.4,5.4c-0.4,0-0.7,0-1-0.1l4.9-8.8l0.1-0.1l-0.3,0
					c0,0,0,0,0,0c-0.2,0-0.3,0-0.5-0.1c-0.1-0.1-0.3-0.1-0.4-0.2c0,0,0,0,0,0c0,0-0.3-0.3-0.4-0.3c-0.1-0.1-0.1-0.2-0.1-0.2
					c0,0-0.1-0.1-0.1-0.2c0,0-0.1-0.1-0.1-0.2c-0.1-0.1-0.1-0.2-0.1-0.3c0,0-0.1,0-0.1,0l0,0l-5.2,9.2c-0.4-0.3-0.7-0.6-0.9-1
					c0.2,0.4,0.5,0.8,0.9,1.2l0,0c0.1,0.1,0.2,0.2,0.3,0.3c0.1,0,0.1,0.1,0.2,0.2c0.1,0.1,0.2,0.1,0.3,0.2c0.1,0.1,0.2,0.1,0.3,0.2
					c0.4,0.2,0.9,0.3,1.3,0.5c0.1,0,0.1,0.1,0.2,0.1c0.5,0.1,0.9,0.2,1.4,0.2c2.8-0.1,5.2-2.4,5.2-5.2
					C524.6,96.9,524.2,95.8,523.6,94.9z"/>
				<path class="st14" d="M522.8,93.8L522.8,93.8l-0.1,0.1l-4.9,8.8c0.3,0.1,0.7,0.1,1,0.1c3,0,5.4-2.4,5.4-5.4
					c0-0.9-0.2-1.8-0.6-2.6C523.4,94.5,523.1,94.2,522.8,93.8z"/>
				<path class="st14" d="M515.4,101.6l5.2-9.2c-0.5-0.2-1.1-0.3-1.7-0.3c-3,0-5.4,2.4-5.4,5.4c0,1.2,0.4,2.2,1,3.1
					C514.7,100.9,515,101.3,515.4,101.6z"/>
			</g>
		</g>
		<g>
			<ellipse class="st9" cx="148.8" cy="94.8" rx="7.2" ry="8.2"/>
			<g>
				<path class="st13" d="M153.4,89.6c0.4,0.8,0.6,1.6,0.6,2.6c0,3-2.4,5.4-5.4,5.4c-0.4,0-0.7,0-1-0.1l4.9-8.8l0.1-0.1l-0.3,0
					c0,0,0,0,0,0c-0.2,0-0.3,0-0.5-0.1c-0.1-0.1-0.3-0.1-0.4-0.2c0,0,0,0,0,0c0,0-0.3-0.3-0.4-0.3c-0.1-0.1-0.1-0.2-0.1-0.2
					c0,0-0.1-0.1-0.1-0.2c0,0-0.1-0.1-0.1-0.2c-0.1-0.1-0.1-0.2-0.1-0.3c0,0-0.1,0-0.1,0l0,0l-5.2,9.2c-0.4-0.3-0.7-0.6-0.9-1
					c0.2,0.4,0.5,0.8,0.9,1.2l0,0c0.1,0.1,0.2,0.2,0.3,0.3c0.1,0,0.1,0.1,0.2,0.2c0.1,0.1,0.2,0.1,0.3,0.2c0.1,0.1,0.2,0.1,0.3,0.2
					c0.4,0.2,0.9,0.3,1.3,0.5c0.1,0,0.1,0.1,0.2,0.1c0.5,0.1,0.9,0.2,1.4,0.2c2.8-0.1,5.2-2.4,5.2-5.2
					C154.4,91.7,154,90.5,153.4,89.6z"/>
				<path class="st14" d="M152.6,88.6L152.6,88.6l-0.1,0.1l-4.9,8.8c0.3,0.1,0.7,0.1,1,0.1c3,0,5.4-2.4,5.4-5.4
					c0-0.9-0.2-1.8-0.6-2.6C153.2,89.2,152.9,88.9,152.6,88.6z"/>
				<path class="st14" d="M145.2,96.3l5.2-9.2c-0.5-0.2-1.1-0.3-1.7-0.3c-3,0-5.4,2.4-5.4,5.4c0,1.2,0.4,2.2,1,3.1
					C144.5,95.7,144.8,96,145.2,96.3z"/>
			</g>
		</g>
		<g>
			<ellipse class="st9" cx="526.1" cy="326.3" rx="7.2" ry="8.2"/>
			<g>
				<path class="st13" d="M530.7,321.1c0.4,0.8,0.6,1.6,0.6,2.6c0,3-2.4,5.4-5.4,5.4c-0.4,0-0.7,0-1-0.1l4.9-8.8l0.1-0.1l-0.3,0
					c0,0,0,0,0,0c-0.2,0-0.3,0-0.5-0.1c-0.1-0.1-0.3-0.1-0.4-0.2c0,0,0,0,0,0c0,0-0.3-0.3-0.4-0.3c-0.1-0.1-0.1-0.2-0.1-0.2
					c0,0-0.1-0.1-0.1-0.2c0,0-0.1-0.1-0.1-0.2c-0.1-0.1-0.1-0.2-0.1-0.3c0,0-0.1,0-0.1,0l0,0l-5.2,9.2c-0.4-0.3-0.7-0.6-0.9-1
					c0.2,0.4,0.5,0.8,0.9,1.2l0,0c0.1,0.1,0.2,0.2,0.3,0.3c0.1,0,0.1,0.1,0.2,0.2c0.1,0.1,0.2,0.1,0.3,0.2c0.1,0.1,0.2,0.1,0.3,0.2
					c0.4,0.2,0.9,0.3,1.3,0.5c0.1,0,0.1,0.1,0.2,0.1c0.5,0.1,0.9,0.2,1.4,0.2c2.8-0.1,5.2-2.4,5.2-5.2
					C531.7,323.2,531.3,322,530.7,321.1z"/>
				<path class="st14" d="M529.9,320.1L529.9,320.1l-0.1,0.1l-4.9,8.8c0.3,0.1,0.7,0.1,1,0.1c3,0,5.4-2.4,5.4-5.4
					c0-0.9-0.2-1.8-0.6-2.6C530.5,320.8,530.2,320.4,529.9,320.1z"/>
				<path class="st14" d="M522.5,327.8l5.2-9.2c-0.5-0.2-1.1-0.3-1.7-0.3c-3,0-5.4,2.4-5.4,5.4c0,1.2,0.4,2.2,1,3.1
					C521.8,327.2,522.1,327.5,522.5,327.8z"/>
			</g>
		</g>
		<g>
			<ellipse class="st9" cx="141.5" cy="336.3" rx="7.2" ry="8.2"/>
			<g>
				<path class="st13" d="M146,331.1c0.4,0.8,0.6,1.6,0.6,2.6c0,3-2.4,5.4-5.4,5.4c-0.4,0-0.7,0-1-0.1l4.9-8.8l0.1-0.1l-0.3,0
					c0,0,0,0,0,0c-0.2,0-0.3,0-0.5-0.1c-0.1-0.1-0.3-0.1-0.4-0.2c0,0,0,0,0,0c0,0-0.3-0.3-0.4-0.3c-0.1-0.1-0.1-0.2-0.1-0.2
					c0,0-0.1-0.1-0.1-0.2c0,0-0.1-0.1-0.1-0.2c-0.1-0.1-0.1-0.2-0.1-0.3c0,0-0.1,0-0.1,0l0,0l-5.2,9.2c-0.4-0.3-0.7-0.6-0.9-1
					c0.2,0.4,0.5,0.8,0.9,1.2l0,0c0.1,0.1,0.2,0.2,0.3,0.3c0.1,0,0.1,0.1,0.2,0.2c0.1,0.1,0.2,0.1,0.3,0.2c0.1,0.1,0.2,0.1,0.3,0.2
					c0.4,0.2,0.9,0.3,1.3,0.5c0.1,0,0.1,0.1,0.2,0.1c0.5,0.1,0.9,0.2,1.4,0.2c2.8-0.1,5.2-2.4,5.2-5.2
					C147,333.2,146.6,332,146,331.1z"/>
				<path class="st14" d="M145.3,330.1L145.3,330.1l-0.1,0.1l-4.9,8.8c0.3,0.1,0.7,0.1,1,0.1c3,0,5.4-2.4,5.4-5.4
					c0-0.9-0.2-1.8-0.6-2.6C145.8,330.8,145.5,330.4,145.3,330.1z"/>
				<path class="st14" d="M137.8,337.8l5.2-9.2c-0.5-0.2-1.1-0.3-1.7-0.3c-3,0-5.4,2.4-5.4,5.4c0,1.2,0.4,2.2,1,3.1
					C137.1,337.2,137.5,337.5,137.8,337.8z"/>
			</g>
		</g>
	</g>
</g>
</svg>
